<svg xmlns="http://www.w3.org/2000/svg" viewBox="0 0 178.47 192"><defs><style>.cls-1{fill:#ff7417;}.cls-2{fill:#ff3600;}.cls-3{fill:#fff;}.cls-4{fill:#f2f2f2;}.cls-5{fill:red;}</style></defs><title>Logotype192</title><g id="Layer_2" data-name="Layer 2"><g id="Layer_1-2" data-name="Layer 1"><path class="cls-1" d="M87.33,1.53h3.81A4.83,4.83,0,0,1,96,6.36v6.1a0,0,0,0,1,0,0H82.5a0,0,0,0,1,0,0V6.36A4.83,4.83,0,0,1,87.33,1.53Z"/><path class="cls-2" d="M90.89,1.53H93a3.23,3.23,0,0,1,3.23,3.23v7.7a0,0,0,0,1,0,0H87.66a0,0,0,0,1,0,0V4.76A3.23,3.23,0,0,1,90.89,1.53Z"/><path d="M97.5,14H81V5.21A5.22,5.22,0,0,1,86.18,0h6.11A5.22,5.22,0,0,1,97.5,5.21ZM84,10.93H94.45V5.21a2.16,2.16,0,0,0-2.16-2.16H86.18A2.16,2.16,0,0,0,84,5.21Z"/><rect class="cls-3" x="84.47" y="12.46" width="9.53" height="8.84"/><path d="M95.52,22.83H82.94V10.93H95.52ZM86,19.77h6.48V14H86Z"/><circle class="cls-3" cx="89.23" cy="81.53" r="60.43"/><path d="M89.23,144.62a63.1,63.1,0,1,1,63.1-63.09A63.16,63.16,0,0,1,89.23,144.62Zm0-120.85A57.76,57.76,0,1,0,147,81.53,57.82,57.82,0,0,0,89.23,23.77Z"/><circle class="cls-3" cx="89.23" cy="81.53" r="49.41"/><path class="cls-4" d="M137.55,82.84a46.94,46.94,0,0,1-84.64,28,46.94,46.94,0,0,0,65.66-65.65A46.81,46.81,0,0,1,137.55,82.84Z"/><path d="M89.23,133.6a52.08,52.08,0,1,1,52.08-52.07A52.13,52.13,0,0,1,89.23,133.6Zm0-98.81A46.74,46.74,0,1,0,136,81.53,46.79,46.79,0,0,0,89.23,34.79Z"/><rect class="cls-1" x="130.82" y="32.53" width="8.52" height="7.26" rx="1.45" ry="1.45" transform="translate(65.13 -84.92) rotate(45)"/><rect class="cls-5" x="132.84" y="33.53" width="6.25" height="7.17" rx="1.45" ry="1.45" transform="translate(66.07 -85.27) rotate(45)"/><path d="M135.52,42.81a2.61,2.61,0,0,1-1.86-.77h0l-4.46-4.46a2.64,2.64,0,0,1,0-3.72l4.46-4.46a2.69,2.69,0,0,1,3.72,0l4.46,4.46a2.63,2.63,0,0,1,0,3.72L137.38,42A2.59,2.59,0,0,1,135.52,42.81Zm.3-2.93Zm-4.16-4.16,3.86,3.86,3.87-3.86-3.87-3.87Z"/><rect x="122.47" y="80" width="10.28" height="3.05" rx="1.53" ry="1.53"/><rect x="45.72" y="80" width="10.28" height="3.05" rx="1.53" ry="1.53"/><rect x="110.84" y="52.87" width="10.28" height="3.05" rx="1.53" ry="1.53" transform="translate(-4.49 97.95) rotate(-45)"/><rect x="56.58" y="107.13" width="10.28" height="3.05" rx="1.53" ry="1.53" transform="translate(-58.76 75.47) rotate(-45)"/><rect x="87.33" y="38.4" width="3.05" height="10.28" rx="1.53" ry="1.53"/><rect x="87.33" y="115.15" width="3.05" height="10.27" rx="1.53" ry="1.53"/><rect x="60.57" y="49.63" width="3.05" height="10.28" rx="1.53" ry="1.53" transform="translate(-20.54 59.95) rotate(-45)"/><rect x="114.84" y="103.91" width="3.05" height="10.27" rx="1.53" ry="1.53" transform="translate(-43.02 114.23) rotate(-45)"/><circle cx="73.14" cy="44.25" r="1.48"/><circle cx="104.36" cy="43.82" r="1.48"/><circle cx="126.93" cy="65.79" r="1.48"/><circle cx="127.15" cy="97.49" r="1.48"/><circle cx="104.68" cy="119.86" r="1.48"/><circle cx="73.23" cy="119.59" r="1.48"/><circle cx="51.31" cy="97.33" r="1.48"/><circle cx="51.37" cy="66.33" r="1.48"/><circle class="cls-3" cx="89.23" cy="81.53" r="15.31"/><path class="cls-4" d="M98.92,90.27A12.8,12.8,0,0,1,76.17,83a13,13,0,0,0,9.5,8.17,12,12,0,0,0,9.87-2.07A13,13,0,0,0,101,77.8,12.78,12.78,0,0,1,98.92,90.27Z"/><path class="cls-5" d="M81.28,97.63A18,18,0,1,1,105.19,89,18,18,0,0,1,81.28,97.63Zm13-27.74a12.64,12.64,0,1,0,6.09,16.81A12.66,12.66,0,0,0,94.27,69.89Z"/><rect class="cls-5" x="89.48" y="58.19" width="9.15" height="24.3" rx="3.45" ry="3.45" transform="translate(38.69 -33.24) rotate(25.08)"/><path class="cls-3" d="M88.26,82.73a6.11,6.11,0,0,1-2.94-8.12l6.42-13.72a6.11,6.11,0,0,1,11.06,5.18L96.37,79.79A6.11,6.11,0,0,1,88.26,82.73Zm10.3-22a3,3,0,0,0-4,1.47L88.08,75.9a3.05,3.05,0,1,0,5.53,2.59L100,64.77A3,3,0,0,0,98.56,60.72Z"/><path d="M12.73,183.22H8.25l-1.47,8.25H0l4.78-27.12h11.5c2.83,0,4.86.65,6.06,2a5.64,5.64,0,0,1,1.32,3.85,9.75,9.75,0,0,1-.15,1.66l-.75,4.25a8,8,0,0,1-3.32,5.15A11.05,11.05,0,0,1,12.73,183.22Zm1.17-13H10.51l-1.24,7.12h3.35c2.06,0,3.25-.91,3.58-2.75l.26-1.54a4.37,4.37,0,0,0,.08-.91A2,2,0,0,0,16,170.9,2.58,2.58,0,0,0,13.9,170.22Z"/><path d="M33.57,192q-5.38,0-7.46-2.34A6.82,6.82,0,0,1,24.68,185a16.2,16.2,0,0,1,.26-2.75l1.55-8.67q1.7-9.53,12.24-9.53,4.37,0,6.63,1.87a6.24,6.24,0,0,1,2.26,5.1,10.61,10.61,0,0,1-.43,3,10.41,10.41,0,0,1-.85,2.2l-.41.75H39.26a6,6,0,0,0,1.24-4.06,3.26,3.26,0,0,0-.71-2.21,2.68,2.68,0,0,0-2.11-.81q-3.81,0-4.53,4.22l-1.31,7.61a9.91,9.91,0,0,0-.19,1.92q0,2.49,3,2.49,3.59,0,4.3-4H45.7l-.19,1.09Q44,192,33.57,192Z"/><path d="M60.51,183.6H49.24l.83-4.75H61.34Z"/><path d="M88.31,170.22H79l-3.73,21.25H68.49l3.73-21.25h-9.3l1-5.87h25.4Z"/><path d="M99.24,164.35l-4.75,27.12H87.67l4.79-27.12Z"/><path d="M111.67,164.35l4,13,8.67-13h7.12l-4.79,27.12h-6.82l2.72-15.29-5.81,9.11h-4.93l-2.56-9.11-2.72,15.29H99.8l4.79-27.12Z"/><path d="M151,191.47H132.05l4.79-27.12h18.91l-1.06,5.87H142.56l-.86,5.09h10l-1.06,5.88h-10l-.75,4.4H152Z"/><path d="M171,164.35c2.86,0,4.9.62,6.1,1.88a5,5,0,0,1,1.36,3.62,8.87,8.87,0,0,1-.15,1.58l-.53,2.94a9.45,9.45,0,0,1-1.56,3.95,6.67,6.67,0,0,1-2.47,2.15l3.43,11h-7.61l-3.17-10.13h-2.33l-1.55,10.13H155.3l4.78-27.12Zm-2.38,5.87h-2.82l-1,6.56h2.64a3.69,3.69,0,0,0,2.86-1,3.65,3.65,0,0,0,.87-2.55C171.2,171.24,170.34,170.22,168.63,170.22Z"/></g></g></svg>