<svg xmlns="http://www.w3.org/2000/svg" viewBox="0 0 167.54 192"><defs><style>.cls-1{fill:#ff7417;}.cls-2{fill:#ff3600;}.cls-3{fill:#fff;}.cls-4{fill:#f2f2f2;}.cls-5{fill:red;}</style></defs><title>Logo192</title><g id="Layer_2" data-name="Layer 2"><g id="Layer_1-2" data-name="Layer 1"><path class="cls-1" d="M79.66,2h8.23a4.83,4.83,0,0,1,4.83,4.83v9.68a0,0,0,0,1,0,0H74.82a0,0,0,0,1,0,0V6.86A4.83,4.83,0,0,1,79.66,2Z"/><path class="cls-2" d="M84.91,2h4.93a3.23,3.23,0,0,1,3.23,3.23V16.54a0,0,0,0,1,0,0H81.68a0,0,0,0,1,0,0V5.26A3.23,3.23,0,0,1,84.91,2Z"/><path d="M94.74,18.57H72.8V6.92A6.92,6.92,0,0,1,79.72,0h8.1a6.93,6.93,0,0,1,6.92,6.92ZM76.85,14.52H90.69V6.92a2.88,2.88,0,0,0-2.87-2.87h-8.1a2.87,2.87,0,0,0-2.87,2.87Z"/><rect class="cls-3" x="77.44" y="16.54" width="12.65" height="11.74"/><path d="M92.12,30.3H75.42V14.52h16.7ZM79.47,26.25h8.6V18.57h-8.6Z"/><circle class="cls-3" cx="83.77" cy="108.23" r="80.22"/><path d="M83.77,192a83.77,83.77,0,1,1,83.77-83.77A83.87,83.87,0,0,1,83.77,192Zm0-160.45a76.68,76.68,0,1,0,76.68,76.68A76.77,76.77,0,0,0,83.77,31.55Z"/><circle class="cls-3" cx="83.77" cy="108.23" r="65.59"/><path class="cls-4" d="M147.92,110A62.32,62.32,0,0,1,35.55,147.09a62.31,62.31,0,0,0,87.16-87.17A62.18,62.18,0,0,1,147.92,110Z"/><path d="M83.77,177.37a69.14,69.14,0,1,1,69.14-69.14A69.21,69.21,0,0,1,83.77,177.37Zm0-131.19a62,62,0,1,0,62.05,62.05A62.12,62.12,0,0,0,83.77,46.18Z"/><rect class="cls-1" x="138.97" y="43.19" width="11.31" height="9.64" rx="1.45" ry="1.45" transform="translate(76.31 -88.21) rotate(45)"/><rect class="cls-5" x="141.66" y="44.51" width="8.3" height="9.53" rx="1.45" ry="1.45" transform="translate(77.55 -88.67) rotate(45)"/><path d="M145.22,56.83a3.47,3.47,0,0,1-2.47-1h0l-5.92-5.92a3.5,3.5,0,0,1,0-4.94L142.75,39a3.58,3.58,0,0,1,4.94,0L153.61,45a3.5,3.5,0,0,1,0,4.94l-5.92,5.92A3.47,3.47,0,0,1,145.22,56.83Zm.39-3.89h0Zm-5.52-5.52,5.13,5.13,5.13-5.13-5.13-5.13Z"/><rect x="127.89" y="106.21" width="13.64" height="4.05" rx="2.03" ry="2.03"/><rect x="26" y="106.21" width="13.64" height="4.05" rx="2.03" ry="2.03"/><rect x="112.46" y="70.19" width="13.65" height="4.05" rx="2.03" ry="2.03" transform="translate(-16.13 105.5) rotate(-45)"/><rect x="40.42" y="142.23" width="13.65" height="4.05" rx="2.03" ry="2.03" transform="translate(-88.17 75.66) rotate(-45)"/><rect x="81.24" y="50.98" width="4.05" height="13.64" rx="2.03" ry="2.03"/><rect x="81.24" y="152.87" width="4.05" height="13.63" rx="2.03" ry="2.03"/><rect x="45.71" y="65.89" width="4.05" height="13.65" rx="2.03" ry="2.03" transform="translate(-37.43 55.05) rotate(-45)"/><rect x="117.77" y="137.95" width="4.05" height="13.64" rx="2.03" ry="2.03" transform="translate(-67.28 127.11) rotate(-45)"/><circle cx="62.4" cy="58.75" r="1.96"/><circle cx="103.85" cy="58.18" r="1.96"/><circle cx="133.81" cy="87.34" r="1.96"/><circle cx="134.11" cy="129.42" r="1.96"/><circle cx="104.28" cy="159.12" r="1.96"/><circle cx="62.52" cy="158.76" r="1.96"/><circle cx="33.43" cy="129.21" r="1.96"/><circle cx="33.5" cy="88.05" r="1.96"/><circle class="cls-3" cx="83.77" cy="108.23" r="20.33"/><path class="cls-4" d="M96.63,119.84a17,17,0,0,1-30.21-9.65A17.26,17.26,0,0,0,79,121a16,16,0,0,0,13.09-2.74,17.25,17.25,0,0,0,7.2-15A17,17,0,0,1,96.63,119.84Z"/><path class="cls-5" d="M73.21,129.61A23.87,23.87,0,1,1,105,118.11,23.9,23.9,0,0,1,73.21,129.61ZM90.45,92.79a16.78,16.78,0,1,0,8.08,22.32A16.81,16.81,0,0,0,90.45,92.79Z"/><rect class="cls-5" x="84.1" y="77.25" width="12.15" height="32.26" rx="3.45" ry="3.45" transform="translate(48.09 -29.42) rotate(25.08)"/><path class="cls-3" d="M82.48,109.83a8.12,8.12,0,0,1-3.91-10.78L87.1,80.84a8.1,8.1,0,0,1,14.67,6.87l-8.52,18.21A8.11,8.11,0,0,1,82.48,109.83ZM96.15,80.61a4,4,0,0,0-5.38,2l-8.53,18.21a4.05,4.05,0,1,0,7.34,3.43L98.1,86A4,4,0,0,0,96.15,80.61Z"/></g></g></svg>